# xmcd
#
# Track frame offsets:
#	150
#	17762
#	35800
#	53950
#
# Disc length: 908 seconds
#
# Revision: 0
# Processed by: cddbd v1.5.2PL0 Copyright (c) Steve Scherf et al.
# Submitted via: audiograbber 1.83.01
#
DISCID=30038a04
DTITLE=Cilla and Dusty - Heart And Soul
DYEAR=1993
DGENRE=Country
TTITLE0=Heart And Soul
TTITLE1=Heart And Soul (A Cappella Remix)
TTITLE2=Heart And Soul (Instrumental)
TTITLE3=A Dream Come True (Performed By Cilla Black)
EXTD=
EXTT0=
EXTT1=
EXTT2=
EXTT3=
PLAYORDER=
